solid AssimpScene
 facet normal 0.995818 -0.0913636 7.54825e-14
  outer loop
  vertex -14.6955 -7 80
  vertex -14.3833 -3.59812 0
  vertex -14.3833 -3.59812 80
  endloop
 endfacet

 facet normal -0.459998 -0.88792 1.97158e-17
  outer loop
  vertex 10.8817 10.3828 80
  vertex 14.2303 8.64801 0
  vertex 14.2303 8.64801 80
  endloop
 endfacet

 facet normal -0.77618 -0.630512 1.72961e-17
  outer loop
  vertex 19.648 3.23033 80
  vertex 17.2197 6.21968 80
  vertex 19.648 3.23033 0
  endloop
 endfacet

 facet normal -0.77618 -0.630512 2.53538e-17
  outer loop
  vertex 19.648 3.23033 0
  vertex 17.2197 6.21968 80
  vertex 17.2197 6.21968 0
  endloop
 endfacet

 facet normal -0.630512 -0.77618 3.45921e-17
  outer loop
  vertex 17.2197 6.21968 80
  vertex 14.2303 8.64801 80
  vertex 17.2197 6.21968 0
  endloop
 endfacet

 facet normal -0.630512 -0.77618 2.88063e-17
  outer loop
  vertex 17.2197 6.21968 0
  vertex 14.2303 8.64801 80
  vertex 14.2303 8.64801 0
  endloop
 endfacet

 facet normal 0.0913636 -0.995818 0
  outer loop
  vertex 4 11.6955 80
  vertex 0.598118 11.3833 80
  vertex 4 11.6955 0
  endloop
 endfacet

 facet normal 0.0913636 -0.995818 1.38015e-14
  outer loop
  vertex 4 11.6955 0
  vertex 0.598118 11.3833 80
  vertex 0.598118 11.3833 0
  endloop
 endfacet

 facet normal 0.995818 -0.0913636 5.03217e-14
  outer loop
  vertex -14.6955 -7 0
  vertex -14.3833 -3.59812 0
  vertex -14.6955 -7 80
  endloop
 endfacet

 facet normal -0.459998 -0.88792 -1.62947e-17
  outer loop
  vertex 10.8817 10.3828 0
  vertex 14.2303 8.64801 0
  vertex 10.8817 10.3828 80
  endloop
 endfacet

 facet normal 0.276328 -0.961064 -4.38488e-14
  outer loop
  vertex 0.598118 11.3833 80
  vertex -2.8817 10.3828 80
  vertex 0.598118 11.3833 0
  endloop
 endfacet

 facet normal 0.276328 -0.961064 -2.9231e-14
  outer loop
  vertex 0.598118 11.3833 0
  vertex -2.8817 10.3828 80
  vertex -2.8817 10.3828 0
  endloop
 endfacet

 facet normal 0.961064 -0.276328 -7.99384e-14
  outer loop
  vertex -14.3833 -3.59812 0
  vertex -13.3828 -0.118302 0
  vertex -14.3833 -3.59812 80
  endloop
 endfacet

 facet normal 0.961064 -0.276328 -5.32989e-14
  outer loop
  vertex -14.3833 -3.59812 80
  vertex -13.3828 -0.118302 0
  vertex -13.3828 -0.118302 80
  endloop
 endfacet

 facet normal 0.459998 -0.88792 8.83156e-18
  outer loop
  vertex -2.8817 10.3828 80
  vertex -6.23033 8.64801 80
  vertex -2.8817 10.3828 0
  endloop
 endfacet

 facet normal 0.459998 -0.88792 5.8877e-18
  outer loop
  vertex -2.8817 10.3828 0
  vertex -6.23033 8.64801 80
  vertex -6.23033 8.64801 0
  endloop
 endfacet

 facet normal 0.88792 -0.459998 -1.76631e-17
  outer loop
  vertex -13.3828 -0.118302 0
  vertex -11.648 3.23033 0
  vertex -13.3828 -0.118302 80
  endloop
 endfacet

 facet normal 0.88792 -0.459998 -7.75698e-18
  outer loop
  vertex -13.3828 -0.118302 80
  vertex -11.648 3.23033 0
  vertex -11.648 3.23033 80
  endloop
 endfacet

 facet normal -0.995818 -0.0913636 4.13397e-14
  outer loop
  vertex 22.6955 -7 0
  vertex 22.3833 -3.59812 80
  vertex 22.3833 -3.59812 0
  endloop
 endfacet

 facet normal 0 -1 0
  outer loop
  vertex 31.6 -33 0
  vertex -23.4 -33 80
  vertex -23.4 -33 0
  endloop
 endfacet

 facet normal -1 0 0
  outer loop
  vertex -23.4 -33 80
  vertex -23.4 22 80
  vertex -23.4 -33 0
  endloop
 endfacet

 facet normal -1 0 0
  outer loop
  vertex -23.4 -33 0
  vertex -23.4 22 80
  vertex -23.4 22 0
  endloop
 endfacet

 facet normal 0 1 0
  outer loop
  vertex -23.4 22 80
  vertex 31.6 22 80
  vertex -23.4 22 0
  endloop
 endfacet

 facet normal 0 1 0
  outer loop
  vertex -23.4 22 0
  vertex 31.6 22 80
  vertex 31.6 22 0
  endloop
 endfacet

 facet normal 1 0 0
  outer loop
  vertex 31.6 22 80
  vertex 31.6 -33 80
  vertex 31.6 22 0
  endloop
 endfacet

 facet normal 1 0 0
  outer loop
  vertex 31.6 22 0
  vertex 31.6 -33 80
  vertex 31.6 -33 0
  endloop
 endfacet

 facet normal -0.995818 -0.0913636 2.75598e-14
  outer loop
  vertex 22.6955 -7 80
  vertex 22.3833 -3.59812 80
  vertex 22.6955 -7 0
  endloop
 endfacet

 facet normal 0.630512 -0.77618 0
  outer loop
  vertex -6.23033 8.64801 80
  vertex -9.21968 6.21968 80
  vertex -6.23033 8.64801 0
  endloop
 endfacet

 facet normal -0.0913636 -0.995818 0
  outer loop
  vertex 4 11.6955 0
  vertex 7.40188 11.3833 0
  vertex 4 11.6955 80
  endloop
 endfacet

 facet normal -0.0913636 -0.995818 2.51514e-14
  outer loop
  vertex 4 11.6955 80
  vertex 7.40188 11.3833 0
  vertex 7.40188 11.3833 80
  endloop
 endfacet

 facet normal -0.961064 -0.276328 -4.39085e-14
  outer loop
  vertex 22.3833 -3.59812 80
  vertex 21.3828 -0.118302 80
  vertex 22.3833 -3.59812 0
  endloop
 endfacet

 facet normal -0.961064 -0.276328 -2.93026e-14
  outer loop
  vertex 22.3833 -3.59812 0
  vertex 21.3828 -0.118302 80
  vertex 21.3828 -0.118302 0
  endloop
 endfacet

 facet normal -0.276328 -0.961064 -7.99783e-14
  outer loop
  vertex 7.40188 11.3833 0
  vertex 10.8817 10.3828 0
  vertex 7.40188 11.3833 80
  endloop
 endfacet

 facet normal -0.276328 -0.961064 -5.33493e-14
  outer loop
  vertex 7.40188 11.3833 80
  vertex 10.8817 10.3828 0
  vertex 10.8817 10.3828 80
  endloop
 endfacet

 facet normal -0.88792 -0.459998 -8.83155e-17
  outer loop
  vertex 21.3828 -0.118302 80
  vertex 19.648 3.23033 80
  vertex 21.3828 -0.118302 0
  endloop
 endfacet

 facet normal -0.88792 -0.459998 -4.9989e-17
  outer loop
  vertex 21.3828 -0.118302 0
  vertex 19.648 3.23033 80
  vertex 19.648 3.23033 0
  endloop
 endfacet

 facet normal -0.961064 0.276328 -4.26798e-17
  outer loop
  vertex 22.3833 -10.4019 80
  vertex 21.3828 -13.8817 0
  vertex 21.3828 -13.8817 80
  endloop
 endfacet

 facet normal 0.630512 0.77618 0
  outer loop
  vertex -9.21968 -20.2197 0
  vertex -6.23033 -22.648 80
  vertex -6.23033 -22.648 0
  endloop
 endfacet

 facet normal -0.0913636 0.995818 0
  outer loop
  vertex 4 -25.6955 80
  vertex 7.40188 -25.3833 80
  vertex 4 -25.6955 0
  endloop
 endfacet

 facet normal -0.0913636 0.995818 1.38087e-14
  outer loop
  vertex 4 -25.6955 0
  vertex 7.40188 -25.3833 80
  vertex 7.40188 -25.3833 0
  endloop
 endfacet

 facet normal -0.995818 0.0913636 0
  outer loop
  vertex 22.6955 -7 0
  vertex 22.3833 -10.4019 0
  vertex 22.6955 -7 80
  endloop
 endfacet

 facet normal -0.995818 0.0913636 2.51508e-14
  outer loop
  vertex 22.6955 -7 80
  vertex 22.3833 -10.4019 0
  vertex 22.3833 -10.4019 80
  endloop
 endfacet

 facet normal -0.276328 0.961064 -4.38288e-14
  outer loop
  vertex 7.40188 -25.3833 80
  vertex 10.8817 -24.3828 80
  vertex 7.40188 -25.3833 0
  endloop
 endfacet

 facet normal -0.276328 0.961064 -2.92091e-14
  outer loop
  vertex 7.40188 -25.3833 0
  vertex 10.8817 -24.3828 80
  vertex 10.8817 -24.3828 0
  endloop
 endfacet

 facet normal -0.961064 0.276328 -2.66899e-14
  outer loop
  vertex 22.3833 -10.4019 0
  vertex 21.3828 -13.8817 0
  vertex 22.3833 -10.4019 80
  endloop
 endfacet

 facet normal 0.630512 0.77618 1.63352e-17
  outer loop
  vertex -9.21968 -20.2197 80
  vertex -6.23033 -22.648 80
  vertex -9.21968 -20.2197 0
  endloop
 endfacet

 facet normal -0.459998 0.88792 2.0607e-17
  outer loop
  vertex 10.8817 -24.3828 80
  vertex 14.2303 -22.648 80
  vertex 10.8817 -24.3828 0
  endloop
 endfacet

 facet normal -0.459998 0.88792 3.6621e-17
  outer loop
  vertex 10.8817 -24.3828 0
  vertex 14.2303 -22.648 80
  vertex 14.2303 -22.648 0
  endloop
 endfacet

 facet normal -0.88792 0.459998 -3.82701e-17
  outer loop
  vertex 21.3828 -13.8817 0
  vertex 19.648 -17.2303 0
  vertex 21.3828 -13.8817 80
  endloop
 endfacet

 facet normal -0.88792 0.459998 -3.23227e-17
  outer loop
  vertex 21.3828 -13.8817 80
  vertex 19.648 -17.2303 0
  vertex 19.648 -17.2303 80
  endloop
 endfacet

 facet normal -0.630512 0.77618 5.47709e-17
  outer loop
  vertex 14.2303 -22.648 80
  vertex 17.2197 -20.2197 80
  vertex 14.2303 -22.648 0
  endloop
 endfacet

 facet normal -0.630512 0.77618 5.51808e-17
  outer loop
  vertex 14.2303 -22.648 0
  vertex 17.2197 -20.2197 80
  vertex 17.2197 -20.2197 0
  endloop
 endfacet

 facet normal -0.77618 0.630512 6.91843e-17
  outer loop
  vertex 17.2197 -20.2197 80
  vertex 19.648 -17.2303 80
  vertex 17.2197 -20.2197 0
  endloop
 endfacet

 facet normal -0.77618 0.630512 3.67894e-17
  outer loop
  vertex 17.2197 -20.2197 0
  vertex 19.648 -17.2303 80
  vertex 19.648 -17.2303 0
  endloop
 endfacet

 facet normal 0.961064 0.276328 0
  outer loop
  vertex -14.3833 -10.4019 0
  vertex -13.3828 -13.8817 80
  vertex -13.3828 -13.8817 0
  endloop
 endfacet

 facet normal 0.630512 -0.77618 1.14898e-17
  outer loop
  vertex -6.23033 8.64801 0
  vertex -9.21968 6.21968 80
  vertex -9.21968 6.21968 0
  endloop
 endfacet

 facet normal 0.77618 -0.630512 2.88268e-17
  outer loop
  vertex -9.21968 6.21968 80
  vertex -11.648 3.23033 80
  vertex -9.21968 6.21968 0
  endloop
 endfacet

 facet normal 0.77618 -0.630512 2.14627e-17
  outer loop
  vertex -9.21968 6.21968 0
  vertex -11.648 3.23033 80
  vertex -11.648 3.23033 0
  endloop
 endfacet

 facet normal 0.995818 0.0913636 0
  outer loop
  vertex -14.6955 -7 80
  vertex -14.3833 -10.4019 80
  vertex -14.6955 -7 0
  endloop
 endfacet

 facet normal 0.995818 0.0913636 1.38097e-14
  outer loop
  vertex -14.6955 -7 0
  vertex -14.3833 -10.4019 80
  vertex -14.3833 -10.4019 0
  endloop
 endfacet

 facet normal 0.0913636 0.995818 0
  outer loop
  vertex 4 -25.6955 0
  vertex 0.598118 -25.3833 0
  vertex 4 -25.6955 80
  endloop
 endfacet

 facet normal 0.0913636 0.995818 2.51533e-14
  outer loop
  vertex 4 -25.6955 80
  vertex 0.598118 -25.3833 0
  vertex 0.598118 -25.3833 80
  endloop
 endfacet

 facet normal 0.961064 0.276328 -1.46065e-14
  outer loop
  vertex -14.3833 -10.4019 80
  vertex -13.3828 -13.8817 80
  vertex -14.3833 -10.4019 0
  endloop
 endfacet

 facet normal 0 -1 0
  outer loop
  vertex 31.6 -33 80
  vertex -23.4 -33 80
  vertex 31.6 -33 0
  endloop
 endfacet

 facet normal 0.276328 0.961064 -7.99629e-14
  outer loop
  vertex 0.598118 -25.3833 0
  vertex -2.8817 -24.3828 0
  vertex 0.598118 -25.3833 80
  endloop
 endfacet

 facet normal 0.276328 0.961064 -5.32786e-14
  outer loop
  vertex 0.598118 -25.3833 80
  vertex -2.8817 -24.3828 0
  vertex -2.8817 -24.3828 80
  endloop
 endfacet

 facet normal 0.88792 0.459998 0
  outer loop
  vertex -13.3828 -13.8817 80
  vertex -11.648 -17.2303 80
  vertex -13.3828 -13.8817 0
  endloop
 endfacet

 facet normal 0.88792 0.459998 6.57193e-18
  outer loop
  vertex -13.3828 -13.8817 0
  vertex -11.648 -17.2303 80
  vertex -11.648 -17.2303 0
  endloop
 endfacet

 facet normal 0.459998 0.88792 8.53717e-17
  outer loop
  vertex -2.8817 -24.3828 0
  vertex -6.23033 -22.648 0
  vertex -2.8817 -24.3828 80
  endloop
 endfacet

 facet normal 0.459998 0.88792 5.69145e-17
  outer loop
  vertex -2.8817 -24.3828 80
  vertex -6.23033 -22.648 0
  vertex -6.23033 -22.648 80
  endloop
 endfacet

 facet normal 0.77618 0.630512 1.72961e-17
  outer loop
  vertex -11.648 -17.2303 80
  vertex -9.21968 -20.2197 80
  vertex -11.648 -17.2303 0
  endloop
 endfacet

 facet normal 0.77618 0.630512 2.6609e-17
  outer loop
  vertex -11.648 -17.2303 0
  vertex -9.21968 -20.2197 80
  vertex -9.21968 -20.2197 0
  endloop
 endfacet

 facet normal -3.05211e-15 2.27452e-15 1
  outer loop
  vertex -11.648 -17.2303 80
  vertex -23.4 -33 80
  vertex -9.21968 -20.2197 80
  endloop
 endfacet

 facet normal -1.01737e-15 7.58173e-16 1
  outer loop
  vertex -14.3833 -3.59812 80
  vertex -23.4 -33 80
  vertex -14.6955 -7 80
  endloop
 endfacet

 facet normal 0 0 1
  outer loop
  vertex 22.3833 -10.4019 80
  vertex 21.3828 -13.8817 80
  vertex 31.6 -33 80
  endloop
 endfacet

 facet normal -4.28191e-15 1.85111e-15 1
  outer loop
  vertex -14.6955 -7 80
  vertex -23.4 -33 80
  vertex -14.3833 -10.4019 80
  endloop
 endfacet

 facet normal 0 0 1
  outer loop
  vertex 21.3828 -13.8817 80
  vertex 19.648 -17.2303 80
  vertex 31.6 -33 80
  endloop
 endfacet

 facet normal -2.60441e-15 9.72166e-16 1
  outer loop
  vertex -14.3833 -10.4019 80
  vertex -23.4 -33 80
  vertex -13.3828 -13.8817 80
  endloop
 endfacet

 facet normal 0 0 1
  outer loop
  vertex 19.648 -17.2303 80
  vertex 17.2197 -20.2197 80
  vertex 31.6 -33 80
  endloop
 endfacet

 facet normal -3.57233e-16 6.37402e-16 1
  outer loop
  vertex -13.3828 -13.8817 80
  vertex -23.4 -33 80
  vertex -11.648 -17.2303 80
  endloop
 endfacet

 facet normal 0 0 1
  outer loop
  vertex 17.2197 -20.2197 80
  vertex 14.2303 -22.648 80
  vertex 31.6 -33 80
  endloop
 endfacet

 facet normal 0 0 1
  outer loop
  vertex 22.6955 -7 80
  vertex 22.3833 -10.4019 80
  vertex 31.6 -33 80
  endloop
 endfacet

 facet normal 0 0 1
  outer loop
  vertex 14.2303 -22.648 80
  vertex 10.8817 -24.3828 80
  vertex 31.6 -33 80
  endloop
 endfacet

 facet normal -1.35967e-15 3.96677e-16 1
  outer loop
  vertex -9.21968 -20.2197 80
  vertex -23.4 -33 80
  vertex -6.23033 -22.648 80
  endloop
 endfacet

 facet normal 0 0 1
  outer loop
  vertex 10.8817 -24.3828 80
  vertex 7.40188 -25.3833 80
  vertex 31.6 -33 80
  endloop
 endfacet

 facet normal -1.01737e-15 7.58173e-16 1
  outer loop
  vertex 31.6 -33 80
  vertex 7.40188 -25.3833 80
  vertex -23.4 -33 80
  endloop
 endfacet

 facet normal -1.01737e-15 7.58173e-16 1
  outer loop
  vertex 7.40188 -25.3833 80
  vertex 4 -25.6955 80
  vertex -23.4 -33 80
  endloop
 endfacet

 facet normal -3.42297e-16 -3.61495e-16 1
  outer loop
  vertex -6.23033 -22.648 80
  vertex -23.4 -33 80
  vertex -2.8817 -24.3828 80
  endloop
 endfacet

 facet normal -1.01737e-15 7.58173e-16 1
  outer loop
  vertex 4 -25.6955 80
  vertex 0.598118 -25.3833 80
  vertex -23.4 -33 80
  endloop
 endfacet

 facet normal -1.01737e-15 7.58173e-16 1
  outer loop
  vertex -23.4 -33 80
  vertex 0.598118 -25.3833 80
  vertex -2.8817 -24.3828 80
  endloop
 endfacet

 facet normal -3.30484e-15 -2.06922e-15 1
  outer loop
  vertex -9.21968 6.21968 80
  vertex -23.4 22 80
  vertex -11.648 3.23033 80
  endloop
 endfacet

 facet normal -1.10161e-15 -6.89739e-16 1
  outer loop
  vertex 4 11.6955 80
  vertex -23.4 22 80
  vertex 0.598118 11.3833 80
  endloop
 endfacet

 facet normal 0 0 1
  outer loop
  vertex 4 11.6955 80
  vertex 7.40188 11.3833 80
  vertex 31.6 22 80
  endloop
 endfacet

 facet normal -2.76567e-16 1.17522e-15 1
  outer loop
  vertex 0.598118 11.3833 80
  vertex -23.4 22 80
  vertex -2.8817 10.3828 80
  endloop
 endfacet

 facet normal 0 0 1
  outer loop
  vertex 7.40188 11.3833 80
  vertex 10.8817 10.3828 80
  vertex 31.6 22 80
  endloop
 endfacet

 facet normal -3.86876e-16 1.38814e-15 1
  outer loop
  vertex -2.8817 10.3828 80
  vertex -23.4 22 80
  vertex -6.23033 8.64801 80
  endloop
 endfacet

 facet normal 0 0 1
  outer loop
  vertex 10.8817 10.3828 80
  vertex 14.2303 8.64801 80
  vertex 31.6 22 80
  endloop
 endfacet

 facet normal -2.31354e-15 -1.16655e-15 1
  outer loop
  vertex -6.23033 8.64801 80
  vertex -23.4 22 80
  vertex -9.21968 6.21968 80
  endloop
 endfacet

 facet normal -7.7044e-16 1.00227e-15 1
  outer loop
  vertex 14.2303 8.64801 80
  vertex 17.2197 6.21968 80
  vertex 31.6 22 80
  endloop
 endfacet

 facet normal 0 0 -1
  outer loop
  vertex -23.4 22 0
  vertex 31.6 22 0
  vertex 4 11.6955 0
  endloop
 endfacet

 facet normal 3.23074e-16 3.0595e-16 1
  outer loop
  vertex 17.2197 6.21968 80
  vertex 19.648 3.23033 80
  vertex 31.6 22 80
  endloop
 endfacet

 facet normal -2.20323e-15 -1.37948e-15 1
  outer loop
  vertex -11.648 3.23033 80
  vertex -23.4 22 80
  vertex -13.3828 -0.118302 80
  endloop
 endfacet

 facet normal 1.09351e-15 -6.96319e-16 1
  outer loop
  vertex 19.648 3.23033 80
  vertex 21.3828 -0.118302 80
  vertex 31.6 22 80
  endloop
 endfacet

 facet normal 0 0 1
  outer loop
  vertex 31.6 22 80
  vertex 21.3828 -0.118302 80
  vertex 31.6 -33 80
  endloop
 endfacet

 facet normal 0 0 1
  outer loop
  vertex 21.3828 -0.118302 80
  vertex 22.3833 -3.59812 80
  vertex 31.6 -33 80
  endloop
 endfacet

 facet normal -2.11899e-15 6.84338e-17 1
  outer loop
  vertex -23.4 22 80
  vertex -23.4 -33 80
  vertex -13.3828 -0.118302 80
  endloop
 endfacet

 facet normal 0 0 1
  outer loop
  vertex 22.3833 -3.59812 80
  vertex 22.6955 -7 80
  vertex 31.6 -33 80
  endloop
 endfacet

 facet normal -1.01737e-15 7.58173e-16 1
  outer loop
  vertex -13.3828 -0.118302 80
  vertex -23.4 -33 80
  vertex -14.3833 -3.59812 80
  endloop
 endfacet

 facet normal 0 0 -1
  outer loop
  vertex -14.3833 -10.4019 0
  vertex -23.4 22 0
  vertex -14.6955 -7 0
  endloop
 endfacet

 facet normal 0 0 -1
  outer loop
  vertex 4 -25.6955 0
  vertex -23.4 -33 0
  vertex 0.598118 -25.3833 0
  endloop
 endfacet

 facet normal 0 0 -1
  outer loop
  vertex 0.598118 -25.3833 0
  vertex -23.4 -33 0
  vertex -2.8817 -24.3828 0
  endloop
 endfacet

 facet normal 0 0 -1
  outer loop
  vertex -2.8817 -24.3828 0
  vertex -23.4 -33 0
  vertex -6.23033 -22.648 0
  endloop
 endfacet

 facet normal 0 0 -1
  outer loop
  vertex -6.23033 -22.648 0
  vertex -23.4 -33 0
  vertex -9.21968 -20.2197 0
  endloop
 endfacet

 facet normal 0 0 -1
  outer loop
  vertex -9.21968 -20.2197 0
  vertex -23.4 -33 0
  vertex -11.648 -17.2303 0
  endloop
 endfacet

 facet normal 0 0 -1
  outer loop
  vertex -11.648 -17.2303 0
  vertex -23.4 -33 0
  vertex -13.3828 -13.8817 0
  endloop
 endfacet

 facet normal 0 0 -1
  outer loop
  vertex -13.3828 -13.8817 0
  vertex -23.4 -33 0
  vertex -14.3833 -10.4019 0
  endloop
 endfacet

 facet normal 0 0 -1
  outer loop
  vertex -23.4 -33 0
  vertex -23.4 22 0
  vertex -14.3833 -10.4019 0
  endloop
 endfacet

 facet normal 0 0 -1
  outer loop
  vertex 7.40188 -25.3833 0
  vertex -23.4 -33 0
  vertex 4 -25.6955 0
  endloop
 endfacet

 facet normal 0 0 -1
  outer loop
  vertex -14.6955 -7 0
  vertex -23.4 22 0
  vertex -14.3833 -3.59812 0
  endloop
 endfacet

 facet normal 0 0 -1
  outer loop
  vertex -14.3833 -3.59812 0
  vertex -23.4 22 0
  vertex -13.3828 -0.118302 0
  endloop
 endfacet

 facet normal 0 0 -1
  outer loop
  vertex -13.3828 -0.118302 0
  vertex -23.4 22 0
  vertex -11.648 3.23033 0
  endloop
 endfacet

 facet normal 0 0 -1
  outer loop
  vertex -11.648 3.23033 0
  vertex -23.4 22 0
  vertex -9.21968 6.21968 0
  endloop
 endfacet

 facet normal 0 0 -1
  outer loop
  vertex -9.21968 6.21968 0
  vertex -23.4 22 0
  vertex -6.23033 8.64801 0
  endloop
 endfacet

 facet normal 0 0 -1
  outer loop
  vertex -6.23033 8.64801 0
  vertex -23.4 22 0
  vertex -2.8817 10.3828 0
  endloop
 endfacet

 facet normal 0 0 -1
  outer loop
  vertex -2.8817 10.3828 0
  vertex -23.4 22 0
  vertex 0.598118 11.3833 0
  endloop
 endfacet

 facet normal 0 0 -1
  outer loop
  vertex 0.598118 11.3833 0
  vertex -23.4 22 0
  vertex 4 11.6955 0
  endloop
 endfacet

 facet normal 0 0 -1
  outer loop
  vertex 22.3833 -3.59812 0
  vertex 31.6 -33 0
  vertex 22.6955 -7 0
  endloop
 endfacet

 facet normal 0 0 -1
  outer loop
  vertex 4 11.6955 0
  vertex 31.6 22 0
  vertex 7.40188 11.3833 0
  endloop
 endfacet

 facet normal 0 0 -1
  outer loop
  vertex 7.40188 11.3833 0
  vertex 31.6 22 0
  vertex 10.8817 10.3828 0
  endloop
 endfacet

 facet normal 0 0 -1
  outer loop
  vertex 10.8817 10.3828 0
  vertex 31.6 22 0
  vertex 14.2303 8.64801 0
  endloop
 endfacet

 facet normal 0 0 -1
  outer loop
  vertex 14.2303 8.64801 0
  vertex 31.6 22 0
  vertex 17.2197 6.21968 0
  endloop
 endfacet

 facet normal 0 0 -1
  outer loop
  vertex 17.2197 6.21968 0
  vertex 31.6 22 0
  vertex 19.648 3.23033 0
  endloop
 endfacet

 facet normal 0 0 -1
  outer loop
  vertex 19.648 3.23033 0
  vertex 31.6 22 0
  vertex 21.3828 -0.118302 0
  endloop
 endfacet

 facet normal 0 0 -1
  outer loop
  vertex 31.6 22 0
  vertex 31.6 -33 0
  vertex 21.3828 -0.118302 0
  endloop
 endfacet

 facet normal 0 0 -1
  outer loop
  vertex 21.3828 -0.118302 0
  vertex 31.6 -33 0
  vertex 22.3833 -3.59812 0
  endloop
 endfacet

 facet normal -1.10161e-15 -6.89739e-16 1
  outer loop
  vertex -23.4 22 80
  vertex 4 11.6955 80
  vertex 31.6 22 80
  endloop
 endfacet

 facet normal 0 0 -1
  outer loop
  vertex 22.6955 -7 0
  vertex 31.6 -33 0
  vertex 22.3833 -10.4019 0
  endloop
 endfacet

 facet normal 0 0 -1
  outer loop
  vertex 22.3833 -10.4019 0
  vertex 31.6 -33 0
  vertex 21.3828 -13.8817 0
  endloop
 endfacet

 facet normal 0 0 -1
  outer loop
  vertex 21.3828 -13.8817 0
  vertex 31.6 -33 0
  vertex 19.648 -17.2303 0
  endloop
 endfacet

 facet normal 0 0 -1
  outer loop
  vertex 19.648 -17.2303 0
  vertex 31.6 -33 0
  vertex 17.2197 -20.2197 0
  endloop
 endfacet

 facet normal 0 0 -1
  outer loop
  vertex 17.2197 -20.2197 0
  vertex 31.6 -33 0
  vertex 14.2303 -22.648 0
  endloop
 endfacet

 facet normal 0 0 -1
  outer loop
  vertex 14.2303 -22.648 0
  vertex 31.6 -33 0
  vertex 10.8817 -24.3828 0
  endloop
 endfacet

 facet normal 0 0 -1
  outer loop
  vertex 10.8817 -24.3828 0
  vertex 31.6 -33 0
  vertex 7.40188 -25.3833 0
  endloop
 endfacet

 facet normal 0 0 -1
  outer loop
  vertex 31.6 -33 0
  vertex -23.4 -33 0
  vertex 7.40188 -25.3833 0
  endloop
 endfacet

endsolid AssimpScene
